<svg width="947" height="947" viewBox="0 0 947 947" fill="none" xmlns="http://www.w3.org/2000/svg">
<rect width="947" height="947" rx="106" fill="#523D35"/>
<g filter="url(#filter0_i_21_111)">
<path d="M234.5 454C256.167 439.833 275 422.5 332 410C363.779 403.031 398.5 379.27 398.5 338C398.5 313 398.5 337 398.5 279" stroke="#E8D9CD" stroke-width="13" stroke-linecap="round"/>
<path d="M234.5 454C256.167 439.833 275 422.5 332 410C366.667 412.5 445.4 411.7 483 388.5C530 359.5 556.5 325.5 559 306.5C561.5 287.5 546.5 252.5 580.5 233.5C590.167 240.667 603.7 263.8 580.5 299" stroke="#E8D9CD" stroke-width="13" stroke-linecap="round" stroke-linejoin="round"/>
<path d="M234.5 454C256.167 439.833 275 422.5 332 410C366.667 412.5 445.4 411.7 483 388.5C530 359.5 536 338 573 330.5C585.833 326.5 631.5 325.5 649.5 353.5C643.333 372.667 582.5 405.5 544.5 361.5C561 361.833 579.5 358 601 353.5" stroke="#E8D9CD" stroke-width="13" stroke-linecap="round" stroke-linejoin="round"/>
<path d="M366.831 315.476C369.187 321.002 372.67 326.383 377.505 331.5C375.328 326.878 371.759 321.181 366.831 315.476Z" fill="#E8D9CD"/>
<path d="M398.505 225C377.172 245.333 343.105 295.1 377.505 331.5C369.338 314.167 341.605 281.7 296.005 290.5C295.672 323.833 311.505 385.6 377.505 362L332.005 322.5" stroke="#E8D9CD" stroke-width="13" stroke-linecap="round" stroke-linejoin="round"/>
<path d="M431.179 315.476C428.823 321.002 425.341 326.383 420.505 331.5C422.683 326.878 426.251 321.181 431.179 315.476Z" fill="#E8D9CD"/>
<path d="M399.505 225C420.838 245.333 454.905 295.1 420.505 331.5C428.672 314.167 456.405 281.7 502.005 290.5C502.338 323.833 486.505 385.6 420.505 362L466.005 322.5" stroke="#E8D9CD" stroke-width="13" stroke-linecap="round" stroke-linejoin="round"/>
<mask id="path-9-outside-1_21_111" maskUnits="userSpaceOnUse" x="242" y="466" width="473" height="186" fill="black">
<rect fill="white" x="242" y="466" width="473" height="186"/>
<path d="M244.521 467.557C262.751 468.208 276.911 468.533 287.002 468.533C297.093 468.533 311.253 468.208 329.482 467.557C329.808 468.859 329.971 469.754 329.971 470.242C329.971 471.137 329.808 472.155 329.482 473.294C325.739 473.619 322.687 473.986 320.327 474.393C318.049 474.718 315.2 475.288 311.782 476.102C308.446 476.915 305.882 478.095 304.092 479.642C302.301 481.106 301.366 482.897 301.284 485.013C300.226 512.682 299.697 538.439 299.697 562.283C299.697 579.699 300.145 602.363 301.04 630.276C301.121 632.392 302.057 634.223 303.848 635.77C305.638 637.234 308.201 638.374 311.538 639.188C314.956 640.001 317.804 640.612 320.083 641.019C322.443 641.344 325.495 641.67 329.238 641.995C329.564 642.972 329.727 644.07 329.727 645.291C329.727 645.942 329.564 646.756 329.238 647.732C315.404 647.244 301.243 647 286.758 647C272.109 647 257.949 647.244 244.277 647.732C243.952 646.756 243.789 645.942 243.789 645.291C243.789 643.908 243.952 642.809 244.277 641.995C246.719 641.751 248.672 641.548 250.137 641.385C251.602 641.222 253.595 640.937 256.118 640.53C258.722 640.123 260.798 639.676 262.344 639.188C263.971 638.618 265.64 637.926 267.349 637.112C269.058 636.299 270.319 635.322 271.133 634.183C272.028 633.043 272.476 631.741 272.476 630.276C273.452 604.804 273.94 579.129 273.94 553.25C273.94 526.883 273.534 504.137 272.72 485.013C272.638 482.897 271.702 481.106 269.912 479.642C268.122 478.095 265.518 476.915 262.1 476.102C258.763 475.288 255.915 474.718 253.555 474.393C251.276 473.986 248.265 473.619 244.521 473.294C244.196 471.829 244.033 470.812 244.033 470.242C244.033 469.428 244.196 468.533 244.521 467.557ZM339.248 467.557C357.64 468.208 372.126 468.533 382.705 468.533C398.086 468.533 411.839 468.208 423.965 467.557C424.29 468.859 424.453 469.754 424.453 470.242C424.453 471.137 424.29 472.155 423.965 473.294C413.223 473.619 405.939 474.433 402.114 475.735C398.371 476.956 396.499 479.113 396.499 482.205C396.499 482.286 397.069 484.321 398.208 488.309L448.989 606.229H450.21L497.817 486.722C498.306 485.501 498.55 483.914 498.55 481.961C498.55 479.275 497.085 477.363 494.155 476.224C491.226 475.084 486.18 474.108 479.019 473.294C478.693 471.504 478.53 470.405 478.53 469.998C478.53 469.347 478.693 468.533 479.019 467.557C489.517 468.045 498.997 468.289 507.461 468.289C516.738 468.289 526.016 468.045 535.293 467.557C535.618 468.533 535.781 469.347 535.781 469.998C535.781 471.3 535.618 472.399 535.293 473.294C529.189 473.864 524.103 475.125 520.034 477.078C516.047 478.95 512.954 482.164 510.757 486.722L444.717 650.54H438.979L368.057 488.309C364.313 479.764 354.71 474.759 339.248 473.294C338.923 471.829 338.76 470.812 338.76 470.242C338.76 469.428 338.923 468.533 339.248 467.557ZM535.049 467.557C553.441 468.208 568.211 468.533 579.36 468.533C594.578 468.533 608.332 468.208 620.62 467.557C620.946 468.859 621.108 469.754 621.108 470.242C621.108 471.137 620.946 472.155 620.62 473.294C611.099 473.701 604.1 474.555 599.624 475.857C595.229 477.16 593.032 479.275 593.032 482.205C593.032 483.263 593.724 485.094 595.107 487.698L632.583 554.959H633.56L674.575 486.722C675.552 485.094 676.04 483.426 676.04 481.717C676.04 479.194 674.412 477.363 671.157 476.224C667.983 475.003 663.182 474.026 656.753 473.294C656.427 471.504 656.265 470.405 656.265 469.998C656.265 469.347 656.427 468.533 656.753 467.557C667.251 468.045 676.772 468.289 685.317 468.289C694.513 468.289 703.75 468.045 713.027 467.557C713.353 468.533 713.516 469.347 713.516 469.998C713.516 471.3 713.353 472.399 713.027 473.294C707.087 473.864 702.082 475.084 698.013 476.956C693.944 478.828 690.444 482.083 687.515 486.722L636.855 568.509C636.855 586.087 637.262 606.676 638.076 630.276C638.158 632.392 639.093 634.223 640.884 635.77C642.674 637.234 645.238 638.374 648.574 639.188C651.992 640.001 654.84 640.612 657.119 641.019C659.479 641.344 662.531 641.67 666.274 641.995C666.6 642.972 666.763 644.07 666.763 645.291C666.763 645.942 666.6 646.756 666.274 647.732C652.603 647.244 638.442 647 623.794 647C609.227 647 595.067 647.244 581.313 647.732C580.988 646.756 580.825 645.942 580.825 645.291C580.825 643.908 580.988 642.809 581.313 641.995C585.057 641.67 588.068 641.344 590.347 641.019C592.707 640.612 595.555 640.001 598.892 639.188C602.31 638.374 604.914 637.234 606.704 635.77C608.494 634.223 609.43 632.392 609.512 630.276C610.326 609.85 610.854 589.261 611.099 568.509L563.369 485.013C560.195 481.025 556.289 478.217 551.65 476.59C547.012 474.962 541.478 473.864 535.049 473.294C534.723 471.829 534.561 470.812 534.561 470.242C534.561 469.428 534.723 468.533 535.049 467.557Z"/>
</mask>
<path d="M244.521 467.557C262.751 468.208 276.911 468.533 287.002 468.533C297.093 468.533 311.253 468.208 329.482 467.557C329.808 468.859 329.971 469.754 329.971 470.242C329.971 471.137 329.808 472.155 329.482 473.294C325.739 473.619 322.687 473.986 320.327 474.393C318.049 474.718 315.2 475.288 311.782 476.102C308.446 476.915 305.882 478.095 304.092 479.642C302.301 481.106 301.366 482.897 301.284 485.013C300.226 512.682 299.697 538.439 299.697 562.283C299.697 579.699 300.145 602.363 301.04 630.276C301.121 632.392 302.057 634.223 303.848 635.77C305.638 637.234 308.201 638.374 311.538 639.188C314.956 640.001 317.804 640.612 320.083 641.019C322.443 641.344 325.495 641.67 329.238 641.995C329.564 642.972 329.727 644.07 329.727 645.291C329.727 645.942 329.564 646.756 329.238 647.732C315.404 647.244 301.243 647 286.758 647C272.109 647 257.949 647.244 244.277 647.732C243.952 646.756 243.789 645.942 243.789 645.291C243.789 643.908 243.952 642.809 244.277 641.995C246.719 641.751 248.672 641.548 250.137 641.385C251.602 641.222 253.595 640.937 256.118 640.53C258.722 640.123 260.798 639.676 262.344 639.188C263.971 638.618 265.64 637.926 267.349 637.112C269.058 636.299 270.319 635.322 271.133 634.183C272.028 633.043 272.476 631.741 272.476 630.276C273.452 604.804 273.94 579.129 273.94 553.25C273.94 526.883 273.534 504.137 272.72 485.013C272.638 482.897 271.702 481.106 269.912 479.642C268.122 478.095 265.518 476.915 262.1 476.102C258.763 475.288 255.915 474.718 253.555 474.393C251.276 473.986 248.265 473.619 244.521 473.294C244.196 471.829 244.033 470.812 244.033 470.242C244.033 469.428 244.196 468.533 244.521 467.557ZM339.248 467.557C357.64 468.208 372.126 468.533 382.705 468.533C398.086 468.533 411.839 468.208 423.965 467.557C424.29 468.859 424.453 469.754 424.453 470.242C424.453 471.137 424.29 472.155 423.965 473.294C413.223 473.619 405.939 474.433 402.114 475.735C398.371 476.956 396.499 479.113 396.499 482.205C396.499 482.286 397.069 484.321 398.208 488.309L448.989 606.229H450.21L497.817 486.722C498.306 485.501 498.55 483.914 498.55 481.961C498.55 479.275 497.085 477.363 494.155 476.224C491.226 475.084 486.18 474.108 479.019 473.294C478.693 471.504 478.53 470.405 478.53 469.998C478.53 469.347 478.693 468.533 479.019 467.557C489.517 468.045 498.997 468.289 507.461 468.289C516.738 468.289 526.016 468.045 535.293 467.557C535.618 468.533 535.781 469.347 535.781 469.998C535.781 471.3 535.618 472.399 535.293 473.294C529.189 473.864 524.103 475.125 520.034 477.078C516.047 478.95 512.954 482.164 510.757 486.722L444.717 650.54H438.979L368.057 488.309C364.313 479.764 354.71 474.759 339.248 473.294C338.923 471.829 338.76 470.812 338.76 470.242C338.76 469.428 338.923 468.533 339.248 467.557ZM535.049 467.557C553.441 468.208 568.211 468.533 579.36 468.533C594.578 468.533 608.332 468.208 620.62 467.557C620.946 468.859 621.108 469.754 621.108 470.242C621.108 471.137 620.946 472.155 620.62 473.294C611.099 473.701 604.1 474.555 599.624 475.857C595.229 477.16 593.032 479.275 593.032 482.205C593.032 483.263 593.724 485.094 595.107 487.698L632.583 554.959H633.56L674.575 486.722C675.552 485.094 676.04 483.426 676.04 481.717C676.04 479.194 674.412 477.363 671.157 476.224C667.983 475.003 663.182 474.026 656.753 473.294C656.427 471.504 656.265 470.405 656.265 469.998C656.265 469.347 656.427 468.533 656.753 467.557C667.251 468.045 676.772 468.289 685.317 468.289C694.513 468.289 703.75 468.045 713.027 467.557C713.353 468.533 713.516 469.347 713.516 469.998C713.516 471.3 713.353 472.399 713.027 473.294C707.087 473.864 702.082 475.084 698.013 476.956C693.944 478.828 690.444 482.083 687.515 486.722L636.855 568.509C636.855 586.087 637.262 606.676 638.076 630.276C638.158 632.392 639.093 634.223 640.884 635.77C642.674 637.234 645.238 638.374 648.574 639.188C651.992 640.001 654.84 640.612 657.119 641.019C659.479 641.344 662.531 641.67 666.274 641.995C666.6 642.972 666.763 644.07 666.763 645.291C666.763 645.942 666.6 646.756 666.274 647.732C652.603 647.244 638.442 647 623.794 647C609.227 647 595.067 647.244 581.313 647.732C580.988 646.756 580.825 645.942 580.825 645.291C580.825 643.908 580.988 642.809 581.313 641.995C585.057 641.67 588.068 641.344 590.347 641.019C592.707 640.612 595.555 640.001 598.892 639.188C602.31 638.374 604.914 637.234 606.704 635.77C608.494 634.223 609.43 632.392 609.512 630.276C610.326 609.85 610.854 589.261 611.099 568.509L563.369 485.013C560.195 481.025 556.289 478.217 551.65 476.59C547.012 474.962 541.478 473.864 535.049 473.294C534.723 471.829 534.561 470.812 534.561 470.242C534.561 469.428 534.723 468.533 535.049 467.557Z" fill="#E8D9CD"/>
<path d="M244.521 467.557L244.557 466.557L243.809 466.531L243.573 467.24L244.521 467.557ZM329.482 467.557L330.453 467.314L330.256 466.528L329.447 466.557L329.482 467.557ZM329.482 473.294L329.569 474.29L330.255 474.231L330.444 473.569L329.482 473.294ZM320.327 474.393L320.469 475.383L320.483 475.38L320.497 475.378L320.327 474.393ZM311.782 476.102L311.551 475.129L311.545 475.13L311.782 476.102ZM304.092 479.642L304.725 480.416L304.735 480.407L304.745 480.398L304.092 479.642ZM301.284 485.013L300.285 484.974L300.285 484.974L301.284 485.013ZM301.04 630.276L300.041 630.308L300.041 630.315L301.04 630.276ZM303.848 635.77L303.194 636.526L303.204 636.535L303.214 636.543L303.848 635.77ZM311.538 639.188L311.301 640.159L311.306 640.16L311.538 639.188ZM320.083 641.019L319.907 642.003L319.927 642.006L319.946 642.009L320.083 641.019ZM329.238 641.995L330.187 641.679L329.979 641.056L329.325 640.999L329.238 641.995ZM329.238 647.732L329.203 648.732L329.95 648.758L330.187 648.049L329.238 647.732ZM244.277 647.732L243.329 648.049L243.565 648.758L244.313 648.732L244.277 647.732ZM244.277 641.995L244.178 641L243.574 641.06L243.349 641.624L244.277 641.995ZM256.118 640.53L255.964 639.542L255.959 639.543L256.118 640.53ZM262.344 639.188L262.645 640.141L262.66 640.136L262.674 640.131L262.344 639.188ZM271.133 634.183L270.346 633.565L270.332 633.583L270.319 633.601L271.133 634.183ZM272.476 630.276L271.476 630.238L271.476 630.257V630.276H272.476ZM272.72 485.013L271.72 485.051L271.721 485.055L272.72 485.013ZM269.912 479.642L269.258 480.398L269.269 480.407L269.279 480.416L269.912 479.642ZM262.1 476.102L261.863 477.073L261.868 477.074L262.1 476.102ZM253.555 474.393L253.379 475.377L253.398 475.38L253.418 475.383L253.555 474.393ZM244.521 473.294L243.545 473.511L243.704 474.227L244.435 474.29L244.521 473.294ZM244.486 468.556C262.719 469.207 276.893 469.533 287.002 469.533V467.533C276.929 467.533 262.782 467.208 244.557 466.557L244.486 468.556ZM287.002 469.533C297.111 469.533 311.285 469.207 329.518 468.556L329.447 466.557C311.222 467.208 297.075 467.533 287.002 467.533V469.533ZM328.512 467.799C328.841 469.114 328.971 469.895 328.971 470.242H330.971C330.971 469.613 330.775 468.603 330.453 467.314L328.512 467.799ZM328.971 470.242C328.971 471.02 328.829 471.942 328.521 473.019L330.444 473.569C330.787 472.367 330.971 471.255 330.971 470.242H328.971ZM329.396 472.298C325.638 472.624 322.556 472.994 320.157 473.407L320.497 475.378C322.819 474.978 325.84 474.614 329.569 474.29L329.396 472.298ZM320.186 473.403C317.865 473.734 314.985 474.311 311.551 475.129L312.014 477.074C315.416 476.264 318.232 475.702 320.469 475.383L320.186 473.403ZM311.545 475.13C308.119 475.966 305.39 477.199 303.438 478.885L304.745 480.398C306.374 478.992 308.772 477.865 312.019 477.073L311.545 475.13ZM303.459 478.868C301.469 480.495 300.378 482.544 300.285 484.974L302.283 485.051C302.353 483.25 303.133 481.718 304.725 480.416L303.459 478.868ZM300.285 484.974C299.227 512.655 298.697 538.424 298.697 562.283H300.697C300.697 538.453 301.226 512.709 302.283 485.051L300.285 484.974ZM298.697 562.283C298.697 579.714 299.145 602.39 300.041 630.308L302.04 630.244C301.145 602.336 300.697 579.683 300.697 562.283H298.697ZM300.041 630.315C300.134 632.742 301.221 634.822 303.194 636.526L304.501 635.013C302.894 633.624 302.109 632.043 302.039 630.238L300.041 630.315ZM303.214 636.543C305.163 638.138 307.884 639.326 311.301 640.159L311.775 638.216C308.519 637.422 306.113 636.331 304.481 634.996L303.214 636.543ZM311.306 640.16C314.735 640.977 317.603 641.592 319.907 642.003L320.259 640.034C318.006 639.632 315.178 639.026 311.77 638.215L311.306 640.16ZM319.946 642.009C322.33 642.338 325.4 642.665 329.152 642.991L329.325 640.999C325.59 640.674 322.556 640.35 320.22 640.028L319.946 642.009ZM328.29 642.311C328.575 643.169 328.727 644.158 328.727 645.291H330.727C330.727 643.982 330.552 642.774 330.187 641.679L328.29 642.311ZM328.727 645.291C328.727 645.791 328.598 646.49 328.29 647.416L330.187 648.049C330.529 647.022 330.727 646.093 330.727 645.291H328.727ZM329.274 646.733C315.427 646.244 301.255 646 286.758 646V648C301.232 648 315.381 648.244 329.203 648.732L329.274 646.733ZM286.758 646C272.098 646 257.926 646.244 244.242 646.733L244.313 648.732C257.972 648.244 272.12 648 286.758 648V646ZM245.226 647.416C244.917 646.49 244.789 645.791 244.789 645.291H242.789C242.789 646.093 242.987 647.022 243.329 648.049L245.226 647.416ZM244.789 645.291C244.789 643.97 244.947 643.014 245.206 642.367L243.349 641.624C242.957 642.604 242.789 643.846 242.789 645.291H244.789ZM244.377 642.99C246.82 642.746 248.777 642.542 250.247 642.379L250.026 640.391C248.567 640.553 246.618 640.756 244.178 641L244.377 642.99ZM250.247 642.379C251.736 642.213 253.748 641.925 256.277 641.518L255.959 639.543C253.442 639.949 251.467 640.231 250.026 640.391L250.247 642.379ZM256.273 641.518C258.9 641.108 261.03 640.651 262.645 640.141L262.043 638.234C260.565 638.701 258.545 639.139 255.964 639.542L256.273 641.518ZM262.674 640.131C264.339 639.549 266.04 638.843 267.779 638.015L266.919 636.209C265.239 637.009 263.604 637.687 262.013 638.244L262.674 640.131ZM267.779 638.015C269.589 637.153 271.006 636.081 271.947 634.764L270.319 633.601C269.633 634.563 268.526 635.444 266.919 636.209L267.779 638.015ZM271.919 634.8C272.954 633.483 273.476 631.963 273.476 630.276H271.476C271.476 631.52 271.102 632.604 270.346 633.565L271.919 634.8ZM273.475 630.315C274.452 604.83 274.94 579.141 274.94 553.25H272.94C272.94 579.116 272.452 604.779 271.476 630.238L273.475 630.315ZM274.94 553.25C274.94 526.873 274.533 504.113 273.719 484.97L271.721 485.055C272.534 504.161 272.94 526.892 272.94 553.25H274.94ZM273.719 484.974C273.626 482.544 272.534 480.495 270.545 478.868L269.279 480.416C270.871 481.718 271.651 483.25 271.72 485.051L273.719 484.974ZM270.566 478.885C268.609 477.195 265.835 475.963 262.331 475.129L261.868 477.074C265.2 477.868 267.634 478.995 269.258 480.398L270.566 478.885ZM262.337 475.13C258.98 474.311 256.096 473.734 253.691 473.402L253.418 475.383C255.733 475.703 258.546 476.264 261.863 477.073L262.337 475.13ZM253.73 473.408C251.41 472.994 248.366 472.624 244.608 472.298L244.435 474.29C248.164 474.614 251.142 474.978 253.379 475.377L253.73 473.408ZM245.498 473.077C245.17 471.604 245.033 470.688 245.033 470.242H243.033C243.033 470.936 243.222 472.054 243.545 473.511L245.498 473.077ZM245.033 470.242C245.033 469.56 245.17 468.773 245.47 467.873L243.573 467.24C243.222 468.293 243.033 469.297 243.033 470.242H245.033ZM339.248 467.557L339.283 466.557L338.536 466.531L338.299 467.24L339.248 467.557ZM423.965 467.557L424.935 467.314L424.735 466.514L423.911 466.558L423.965 467.557ZM423.965 473.294L423.995 474.293L424.726 474.271L424.926 473.569L423.965 473.294ZM402.114 475.735L402.424 476.686L402.437 476.682L402.114 475.735ZM398.208 488.309L397.246 488.583L397.264 488.645L397.29 488.704L398.208 488.309ZM448.989 606.229L448.071 606.624L448.331 607.229H448.989V606.229ZM450.21 606.229V607.229H450.888L451.139 606.599L450.21 606.229ZM497.817 486.722L496.889 486.35L496.888 486.352L497.817 486.722ZM479.019 473.294L478.035 473.473L478.168 474.204L478.906 474.288L479.019 473.294ZM479.019 467.557L479.065 466.558L478.309 466.523L478.07 467.24L479.019 467.557ZM535.293 467.557L536.242 467.24L536.001 466.518L535.24 466.558L535.293 467.557ZM535.293 473.294L535.386 474.29L536.016 474.231L536.233 473.636L535.293 473.294ZM520.034 477.078L520.459 477.983L520.467 477.98L520.034 477.078ZM510.757 486.722L509.856 486.287L509.842 486.317L509.829 486.348L510.757 486.722ZM444.717 650.54V651.54H445.392L445.644 650.914L444.717 650.54ZM438.979 650.54L438.063 650.941L438.325 651.54H438.979V650.54ZM368.057 488.309L368.973 487.908L368.973 487.907L368.057 488.309ZM339.248 473.294L338.272 473.511L338.43 474.221L339.154 474.289L339.248 473.294ZM339.213 468.556C357.609 469.207 372.108 469.533 382.705 469.533V467.533C372.143 467.533 357.671 467.208 339.283 466.557L339.213 468.556ZM382.705 469.533C398.099 469.533 411.871 469.207 424.018 468.555L423.911 466.558C411.807 467.208 398.073 467.533 382.705 467.533V469.533ZM422.995 467.799C423.323 469.114 423.453 469.895 423.453 470.242H425.453C425.453 469.613 425.257 468.603 424.935 467.314L422.995 467.799ZM423.453 470.242C423.453 471.02 423.311 471.942 423.003 473.019L424.926 473.569C425.27 472.367 425.453 471.255 425.453 470.242H423.453ZM423.935 472.294C413.205 472.62 405.778 473.432 401.792 474.789L402.437 476.682C406.1 475.435 413.24 474.619 423.995 474.293L423.935 472.294ZM401.804 474.785C399.823 475.431 398.239 476.355 397.148 477.613C396.04 478.889 395.499 480.44 395.499 482.205H397.499C397.499 480.878 397.894 479.805 398.658 478.924C399.438 478.025 400.662 477.261 402.424 476.686L401.804 474.785ZM395.499 482.205C395.499 482.305 395.515 482.388 395.516 482.391C395.52 482.417 395.525 482.44 395.529 482.457C395.536 482.492 395.546 482.531 395.556 482.57C395.576 482.65 395.604 482.758 395.64 482.892C395.713 483.162 395.821 483.552 395.963 484.062C396.249 485.081 396.677 486.589 397.246 488.583L399.17 488.034C398.6 486.04 398.173 484.537 397.889 483.522C397.747 483.015 397.641 482.632 397.571 482.372C397.536 482.242 397.511 482.147 397.496 482.085C397.488 482.053 397.484 482.036 397.483 482.03C397.482 482.026 397.483 482.033 397.486 482.046C397.487 482.053 397.489 482.067 397.492 482.086C397.493 482.099 397.499 482.145 397.499 482.205H395.499ZM397.29 488.704L448.071 606.624L449.908 605.833L399.126 487.913L397.29 488.704ZM448.989 607.229H450.21V605.229H448.989V607.229ZM451.139 606.599L498.746 487.092L496.888 486.352L449.281 605.858L451.139 606.599ZM498.746 487.093C499.298 485.711 499.55 483.985 499.55 481.961H497.55C497.55 483.843 497.313 485.29 496.889 486.35L498.746 487.093ZM499.55 481.961C499.55 480.425 499.126 479.055 498.245 477.904C497.372 476.765 496.102 475.908 494.518 475.292L493.793 477.156C495.138 477.679 496.065 478.348 496.657 479.121C497.241 479.882 497.55 480.811 497.55 481.961H499.55ZM494.518 475.292C491.457 474.101 486.297 473.115 479.131 472.3L478.906 474.288C486.063 475.101 490.995 476.067 493.793 477.156L494.518 475.292ZM480.002 473.115C479.841 472.225 479.721 471.515 479.642 470.981C479.559 470.424 479.53 470.117 479.53 469.998H477.53C477.53 470.286 477.583 470.732 477.663 471.274C477.747 471.838 477.871 472.573 478.035 473.473L480.002 473.115ZM479.53 469.998C479.53 469.498 479.658 468.8 479.967 467.873L478.07 467.24C477.728 468.267 477.53 469.196 477.53 469.998H479.53ZM478.972 468.556C489.482 469.044 498.979 469.289 507.461 469.289V467.289C499.016 467.289 489.551 467.045 479.065 466.558L478.972 468.556ZM507.461 469.289C516.756 469.289 526.051 469.044 535.346 468.555L535.24 466.558C525.981 467.045 516.721 467.289 507.461 467.289V469.289ZM534.344 467.873C534.653 468.8 534.781 469.498 534.781 469.998H536.781C536.781 469.196 536.584 468.267 536.242 467.24L534.344 467.873ZM534.781 469.998C534.781 471.223 534.627 472.199 534.353 472.952L536.233 473.636C536.61 472.599 536.781 471.377 536.781 469.998H534.781ZM535.2 472.298C529.018 472.875 523.808 474.157 519.601 476.177L520.467 477.98C524.398 476.093 529.361 474.852 535.386 474.29L535.2 472.298ZM519.609 476.173C515.383 478.157 512.138 481.555 509.856 486.287L511.658 487.156C513.771 482.773 516.71 479.743 520.459 477.983L519.609 476.173ZM509.829 486.348L443.789 650.166L445.644 650.914L511.684 487.096L509.829 486.348ZM444.717 649.54H438.979V651.54H444.717V649.54ZM439.896 650.139L368.973 487.908L367.14 488.709L438.063 650.941L439.896 650.139ZM368.973 487.907C365.004 478.85 354.915 473.774 339.342 472.298L339.154 474.289C354.506 475.744 363.622 480.678 367.141 488.71L368.973 487.907ZM340.224 473.077C339.897 471.604 339.76 470.688 339.76 470.242H337.76C337.76 470.936 337.948 472.054 338.272 473.511L340.224 473.077ZM339.76 470.242C339.76 469.56 339.897 468.773 340.197 467.873L338.299 467.24C337.948 468.293 337.76 469.297 337.76 470.242H339.76ZM535.049 467.557L535.084 466.557L534.337 466.531L534.1 467.24L535.049 467.557ZM620.62 467.557L621.59 467.314L621.39 466.514L620.567 466.558L620.62 467.557ZM620.62 473.294L620.663 474.293L621.383 474.262L621.582 473.569L620.62 473.294ZM599.624 475.857L599.345 474.897L599.34 474.899L599.624 475.857ZM595.107 487.698L594.224 488.167L594.229 488.176L594.234 488.185L595.107 487.698ZM632.583 554.959L631.709 555.446L631.995 555.959H632.583V554.959ZM633.56 554.959V555.959H634.125L634.417 555.474L633.56 554.959ZM674.575 486.722L675.432 487.237L675.433 487.236L674.575 486.722ZM671.157 476.224L670.798 477.157L670.812 477.162L670.827 477.167L671.157 476.224ZM656.753 473.294L655.769 473.473L655.902 474.203L656.64 474.288L656.753 473.294ZM656.753 467.557L656.799 466.558L656.044 466.523L655.804 467.24L656.753 467.557ZM713.027 467.557L713.976 467.24L713.735 466.518L712.975 466.558L713.027 467.557ZM713.027 473.294L713.123 474.289L713.751 474.229L713.967 473.636L713.027 473.294ZM687.515 486.722L686.669 486.188L686.665 486.195L687.515 486.722ZM636.855 568.509L636.005 567.982L635.855 568.224V568.509H636.855ZM638.076 630.276L637.077 630.311L637.077 630.315L638.076 630.276ZM640.884 635.77L640.23 636.526L640.24 636.535L640.251 636.543L640.884 635.77ZM648.574 639.188L648.337 640.159L648.343 640.16L648.574 639.188ZM657.119 641.019L656.943 642.003L656.963 642.006L656.983 642.009L657.119 641.019ZM666.274 641.995L667.223 641.679L667.015 641.056L666.361 640.999L666.274 641.995ZM666.274 647.732L666.239 648.732L666.986 648.758L667.223 648.049L666.274 647.732ZM581.313 647.732L580.365 648.049L580.601 648.758L581.349 648.732L581.313 647.732ZM581.313 641.995L581.227 640.999L580.614 641.052L580.385 641.624L581.313 641.995ZM590.347 641.019L590.488 642.009L590.502 642.006L590.517 642.004L590.347 641.019ZM598.892 639.188L598.66 638.215L598.655 638.216L598.892 639.188ZM606.704 635.77L607.337 636.543L607.348 636.535L607.358 636.526L606.704 635.77ZM609.512 630.276L608.513 630.237L608.512 630.238L609.512 630.276ZM611.099 568.509L612.099 568.521L612.102 568.249L611.967 568.013L611.099 568.509ZM563.369 485.013L564.237 484.516L564.199 484.45L564.152 484.39L563.369 485.013ZM535.049 473.294L534.073 473.511L534.231 474.225L534.961 474.29L535.049 473.294ZM535.013 468.556C553.411 469.207 568.194 469.533 579.36 469.533V467.533C568.228 467.533 553.471 467.208 535.084 466.557L535.013 468.556ZM579.36 469.533C594.592 469.533 608.363 469.207 620.673 468.555L620.567 466.558C608.3 467.208 594.565 467.533 579.36 467.533V469.533ZM619.65 467.799C619.979 469.114 620.108 469.895 620.108 470.242H622.108C622.108 469.613 621.913 468.603 621.59 467.314L619.65 467.799ZM620.108 470.242C620.108 471.02 619.966 471.942 619.659 473.019L621.582 473.569C621.925 472.367 622.108 471.255 622.108 470.242H620.108ZM620.577 472.295C611.041 472.702 603.942 473.56 599.345 474.897L599.903 476.818C604.258 475.551 611.156 474.699 620.663 474.293L620.577 472.295ZM599.34 474.899C597.06 475.574 595.244 476.49 593.987 477.701C592.701 478.938 592.032 480.456 592.032 482.205H594.032C594.032 481.024 594.462 480.019 595.374 479.141C596.314 478.236 597.794 477.443 599.908 476.816L599.34 474.899ZM592.032 482.205C592.032 482.918 592.257 483.776 592.616 484.725C592.982 485.695 593.522 486.845 594.224 488.167L595.991 487.229C595.31 485.948 594.812 484.88 594.486 484.018C594.153 483.137 594.032 482.551 594.032 482.205H592.032ZM594.234 488.185L631.709 555.446L633.457 554.472L595.981 487.212L594.234 488.185ZM632.583 555.959H633.56V553.959H632.583V555.959ZM634.417 555.474L675.432 487.237L673.718 486.207L632.702 554.444L634.417 555.474ZM675.433 487.236C676.492 485.471 677.04 483.627 677.04 481.717H675.04C675.04 483.225 674.612 484.717 673.718 486.207L675.433 487.236ZM677.04 481.717C677.04 480.219 676.549 478.892 675.567 477.787C674.603 476.703 673.214 475.884 671.488 475.28L670.827 477.167C672.356 477.703 673.408 478.369 674.072 479.116C674.718 479.842 675.04 480.692 675.04 481.717H677.04ZM671.516 475.29C668.221 474.023 663.318 473.035 656.866 472.3L656.64 474.288C663.046 475.017 667.745 475.983 670.798 477.157L671.516 475.29ZM657.737 473.115C657.575 472.225 657.455 471.515 657.376 470.981C657.293 470.424 657.265 470.117 657.265 469.998H655.265C655.265 470.286 655.317 470.732 655.398 471.274C655.481 471.838 655.605 472.573 655.769 473.473L657.737 473.115ZM657.265 469.998C657.265 469.498 657.393 468.8 657.702 467.873L655.804 467.24C655.462 468.267 655.265 469.196 655.265 469.998H657.265ZM656.706 468.556C667.217 469.044 676.754 469.289 685.317 469.289V467.289C676.791 467.289 667.285 467.045 656.799 466.558L656.706 468.556ZM685.317 469.289C694.531 469.289 703.785 469.044 713.08 468.555L712.975 466.558C703.715 467.045 694.496 467.289 685.317 467.289V469.289ZM712.079 467.873C712.388 468.8 712.516 469.498 712.516 469.998H714.516C714.516 469.196 714.318 468.267 713.976 467.24L712.079 467.873ZM712.516 469.998C712.516 471.223 712.362 472.199 712.088 472.952L713.967 473.636C714.344 472.599 714.516 471.377 714.516 469.998H712.516ZM712.932 472.299C706.914 472.876 701.793 474.116 697.595 476.048L698.431 477.865C702.37 476.052 707.259 474.852 713.123 474.289L712.932 472.299ZM697.595 476.048C693.314 478.017 689.679 481.422 686.669 486.188L688.36 487.256C691.21 482.744 694.573 479.639 698.431 477.865L697.595 476.048ZM686.665 486.195L636.005 567.982L637.706 569.035L688.365 487.248L686.665 486.195ZM635.855 568.509C635.855 586.102 636.263 606.703 637.077 630.311L639.076 630.242C638.262 606.65 637.855 586.072 637.855 568.509H635.855ZM637.077 630.315C637.17 632.742 638.257 634.822 640.23 636.526L641.537 635.013C639.93 633.624 639.145 632.043 639.075 630.238L637.077 630.315ZM640.251 636.543C642.199 638.138 644.92 639.326 648.337 640.159L648.811 638.216C645.555 637.422 643.149 636.331 641.517 634.996L640.251 636.543ZM648.343 640.16C651.771 640.977 654.639 641.592 656.943 642.003L657.295 640.034C655.042 639.632 652.214 639.026 648.806 638.215L648.343 640.16ZM656.983 642.009C659.366 642.338 662.436 642.665 666.188 642.991L666.361 640.999C662.626 640.674 659.593 640.35 657.256 640.028L656.983 642.009ZM665.326 642.311C665.612 643.169 665.763 644.158 665.763 645.291H667.763C667.763 643.982 667.588 642.774 667.223 641.679L665.326 642.311ZM665.763 645.291C665.763 645.791 665.635 646.49 665.326 647.416L667.223 648.049C667.565 647.022 667.763 646.093 667.763 645.291H665.763ZM666.31 646.733C652.626 646.244 638.453 646 623.794 646V648C638.431 648 652.58 648.244 666.239 648.732L666.31 646.733ZM623.794 646C609.216 646 595.044 646.244 581.278 646.733L581.349 648.732C595.09 648.244 609.238 648 623.794 648V646ZM582.262 647.416C581.953 646.49 581.825 645.791 581.825 645.291H579.825C579.825 646.093 580.023 647.022 580.365 648.049L582.262 647.416ZM581.825 645.291C581.825 643.97 581.983 643.014 582.242 642.367L580.385 641.624C579.993 642.604 579.825 643.846 579.825 645.291H581.825ZM581.4 642.991C585.152 642.665 588.184 642.338 590.488 642.009L590.205 640.029C587.953 640.35 584.962 640.674 581.227 640.999L581.4 642.991ZM590.517 642.004C592.906 641.592 595.778 640.976 599.129 640.159L598.655 638.216C595.332 639.026 592.507 639.631 590.177 640.033L590.517 642.004ZM599.123 640.16C602.619 639.328 605.385 638.141 607.337 636.543L606.071 634.996C604.443 636.328 602 637.419 598.66 638.215L599.123 640.16ZM607.358 636.526C609.331 634.822 610.418 632.742 610.511 630.315L608.512 630.238C608.443 632.043 607.658 633.624 606.05 635.013L607.358 636.526ZM610.511 630.316C611.325 609.88 611.854 589.282 612.099 568.521L610.099 568.497C609.855 589.24 609.326 609.82 608.513 630.237L610.511 630.316ZM611.967 568.013L564.237 484.516L562.501 485.509L610.23 569.005L611.967 568.013ZM564.152 484.39C560.865 480.261 556.805 477.339 551.981 475.646L551.319 477.533C555.774 479.096 559.526 481.789 562.587 485.635L564.152 484.39ZM551.981 475.646C547.244 473.984 541.625 472.873 535.137 472.298L534.961 474.29C541.331 474.855 546.779 475.94 551.319 477.533L551.981 475.646ZM536.025 473.077C535.698 471.604 535.561 470.688 535.561 470.242H533.561C533.561 470.936 533.749 472.054 534.073 473.511L536.025 473.077ZM535.561 470.242C535.561 469.56 535.697 468.773 535.998 467.873L534.1 467.24C533.749 468.293 533.561 469.297 533.561 470.242H535.561Z" fill="#E8D9CD" mask="url(#path-9-outside-1_21_111)"/>
<rect x="126.5" y="548.5" width="84" height="14" rx="7" fill="#E8D9CD" stroke="#E8D9CD"/>
<rect x="738.5" y="548.5" width="84" height="14" rx="7" fill="#E8D9CD" stroke="#E8D9CD"/>
</g>
<defs>
<filter id="filter0_i_21_111" x="126" y="218.5" width="697" height="436.04" filterUnits="userSpaceOnUse" color-interpolation-filters="sRGB">
<feFlood flood-opacity="0" result="BackgroundImageFix"/>
<feBlend mode="normal" in="SourceGraphic" in2="BackgroundImageFix" result="shape"/>
<feColorMatrix in="SourceAlpha" type="matrix" values="0 0 0 0 0 0 0 0 0 0 0 0 0 0 0 0 0 0 127 0" result="hardAlpha"/>
<feOffset dy="4"/>
<feGaussianBlur stdDeviation="2"/>
<feComposite in2="hardAlpha" operator="arithmetic" k2="-1" k3="1"/>
<feColorMatrix type="matrix" values="0 0 0 0 0 0 0 0 0 0 0 0 0 0 0 0 0 0 0.25 0"/>
<feBlend mode="normal" in2="shape" result="effect1_innerShadow_21_111"/>
</filter>
</defs>
</svg>
